<svg width="21" height="20" viewBox="0 0 21 20" fill="none" xmlns="http://www.w3.org/2000/svg">
<path d="M19.2129 19L13.2129 13L19.2129 19ZM15.2129 8C15.2129 8.91925 15.0318 9.82951 14.68 10.6788C14.3283 11.5281 13.8126 12.2997 13.1626 12.9497C12.5126 13.5998 11.741 14.1154 10.8917 14.4672C10.0424 14.8189 9.13214 15 8.21289 15C7.29364 15 6.38339 14.8189 5.53411 14.4672C4.68483 14.1154 3.91315 13.5998 3.26314 12.9497C2.61313 12.2997 2.09752 11.5281 1.74573 10.6788C1.39395 9.82951 1.21289 8.91925 1.21289 8C1.21289 6.14348 1.95039 4.36301 3.26314 3.05025C4.5759 1.7375 6.35638 1 8.21289 1C10.0694 1 11.8499 1.7375 13.1626 3.05025C14.4754 4.36301 15.2129 6.14348 15.2129 8Z" stroke="black" stroke-width="2" stroke-linecap="round" stroke-linejoin="round"/>
</svg>
